<?xml version="1.0" encoding="UTF-8"?>
<svg xmlns="http://www.w3.org/2000/svg" xmlns:xlink="http://www.w3.org/1999/xlink" width="50pt" height="50pt" viewBox="0 0 50 50" version="1.1">
<g id="surface2073237">
<path style=" stroke:none;fill-rule:nonzero;fill:rgb(100%,100%,100%);fill-opacity:1;" d="M 24.90625 3.3125 C 27.113281 3.3125 29.035156 3.867188 30.09375 5.28125 C 31.664062 5.621094 32.914062 6.359375 33.6875 7.4375 C 34.542969 8.628906 34.921875 10.0625 35.03125 11.5 C 35.230469 14.117188 34.613281 16.679688 34.09375 18.28125 C 34.566406 18.859375 34.871094 19.628906 34.78125 20.6875 C 34.667969 21.914062 34.386719 22.808594 33.90625 23.4375 C 33.664062 23.753906 33.3125 23.773438 33 23.9375 C 32.765625 25.265625 32.261719 26.585938 31.65625 27.625 C 31.617188 27.800781 31.53125 27.964844 31.40625 28.09375 C 31.40625 28.09375 31.347656 28.148438 31.34375 28.15625 C 31.335938 28.167969 31.320312 28.175781 31.3125 28.1875 C 30.996094 28.667969 30.8125 29.152344 30.8125 29.6875 C 30.8125 30.527344 30.828125 31.273438 30.90625 32.21875 C 31.242188 33.003906 32.015625 33.632812 33.25 34.25 C 33.761719 34.503906 34.332031 34.75 34.9375 35 L 31 35 C 29.300781 35 28 36.300781 28 38 L 28 38.410156 C 27.167969 38.765625 26.171875 39 25 39 C 22.527344 39 20.800781 37.957031 19.78125 36.90625 C 19.285156 36.394531 18.941406 35.871094 18.71875 35.46875 C 18.382812 35.6875 18.015625 35.878906 17.65625 36.0625 C 16.210938 36.792969 14.570312 37.351562 13 38.03125 C 11.429688 38.710938 9.9375 39.480469 8.875 40.5625 C 8.027344 41.425781 7.523438 42.574219 7.25 44 L 28.734375 44 C 29.277344 44.617188 30.078125 45 31 45 L 35 45 L 35 46 L 4.9375 46 L 5 44.9375 C 5.136719 42.445312 6.109375 40.535156 7.46875 39.15625 C 8.828125 37.777344 10.519531 36.910156 12.1875 36.1875 C 13.855469 35.464844 15.496094 34.882812 16.75 34.25 C 17.949219 33.644531 18.699219 33.039062 19 32.28125 C 19.082031 31.484375 19.09375 30.769531 19.09375 30 C 19.09375 29.277344 18.9375 28.625 18.625 28.15625 C 18.601562 28.128906 18.5 28 18.5 28 C 18.40625 27.878906 18.34375 27.742188 18.3125 27.59375 C 17.691406 26.570312 17.148438 25.269531 16.90625 23.90625 C 16.632812 23.742188 16.316406 23.726562 16.09375 23.4375 C 15.628906 22.828125 15.261719 21.96875 15.09375 20.75 L 15.09375 20.6875 C 14.996094 19.535156 15.378906 18.765625 15.84375 18.21875 C 14.976562 14.5625 14.722656 11.042969 15.9375 8.25 C 17.214844 5.316406 20.183594 3.417969 24.875 3.3125 Z M 45.0625 46 L 45 46 L 45 45 L 45.003906 45 Z M 17.78125 9.0625 C 16.808594 11.304688 16.953125 14.605469 17.875 18.25 L 18.03125 18.9375 L 17.46875 19.34375 C 17.546875 19.289062 17.078125 19.710938 17.09375 20.46875 C 17.097656 20.484375 17.089844 20.484375 17.09375 20.5 C 17.09375 20.519531 17.09375 20.511719 17.09375 20.53125 C 17.230469 21.449219 17.480469 21.988281 17.65625 22.21875 C 17.746094 22.339844 17.839844 22.390625 17.875 22.40625 L 18.6875 22.40625 L 18.78125 23.28125 C 18.953125 24.5625 19.628906 26.054688 20.21875 26.90625 C 20.222656 26.914062 20.214844 26.929688 20.21875 26.9375 C 20.359375 27.109375 20.855469 27.722656 21.6875 28.4375 C 22.648438 29.261719 23.898438 30 25 30 C 26.109375 30 27.347656 29.296875 28.28125 28.5 C 28.84375 28.019531 29.238281 27.617188 29.5 27.3125 C 29.554688 27.21875 29.597656 27.117188 29.65625 27.03125 L 29.6875 27.03125 C 30.261719 26.210938 30.921875 24.578125 31.09375 23.28125 L 31.21875 22.40625 L 32.09375 22.40625 C 32.058594 22.40625 32.144531 22.4375 32.3125 22.21875 C 32.476562 22.003906 32.71875 21.472656 32.8125 20.53125 C 32.8125 20.515625 32.8125 20.515625 32.8125 20.5 C 32.851562 19.765625 32.523438 19.433594 32.53125 19.40625 L 31.75 19 L 32.0625 18.15625 C 32.519531 16.875 33.214844 14.058594 33.03125 11.65625 C 32.941406 10.457031 32.621094 9.371094 32.0625 8.59375 C 31.503906 7.816406 30.75 7.285156 29.375 7.09375 L 28.875 7.03125 L 28.625 6.59375 C 28.210938 5.882812 26.933594 5.320312 24.9375 5.3125 C 24.925781 5.3125 24.917969 5.3125 24.90625 5.3125 C 20.722656 5.414062 18.753906 6.828125 17.78125 9.0625 Z M 21 32.625 L 20.9375 32.8125 C 20.777344 33.285156 20.539062 33.6875 20.25 34.0625 C 20.25 34.0625 20.488281 34.75 21.21875 35.5 C 21.949219 36.25 23.074219 37 25 37 C 26.933594 37 28.019531 36.28125 28.71875 35.5625 C 29.417969 34.84375 29.65625 34.1875 29.65625 34.1875 C 29.664062 34.144531 29.675781 34.101562 29.6875 34.0625 C 29.394531 33.695312 29.144531 33.304688 28.96875 32.84375 L 28.90625 32.71875 L 28.90625 32.59375 C 28.835938 31.828125 28.816406 31.203125 28.8125 30.59375 C 27.785156 31.34375 26.5 32 25 32 C 23.46875 32 22.148438 31.308594 21.09375 30.53125 C 21.09375 31.183594 21.085938 31.867188 21 32.625 Z M 21 32.625 "/>
<path style=" stroke:none;fill-rule:nonzero;fill:rgb(100%,100%,100%);fill-opacity:1;" d="M 49 37 L 43 37 L 43 31 C 43 30.398438 42.601562 30 42 30 L 38 30 C 37.398438 30 37 30.398438 37 31 L 37 37 L 31 37 C 30.398438 37 30 37.398438 30 38 L 30 42 C 30 42.601562 30.398438 43 31 43 L 37 43 L 37 49 C 37 49.601562 37.398438 50 38 50 L 42 50 C 42.601562 50 43 49.601562 43 49 L 43 43 L 49 43 C 49.601562 43 50 42.601562 50 42 L 50 38 C 50 37.398438 49.601562 37 49 37 Z M 48 41 L 42 41 C 41.398438 41 41 41.398438 41 42 L 41 48 L 39 48 L 39 42 C 39 41.398438 38.601562 41 38 41 L 32 41 L 32 39 L 38 39 C 38.601562 39 39 38.601562 39 38 L 39 32 L 41 32 L 41 38 C 41 38.601562 41.398438 39 42 39 L 48 39 Z M 48 41 "/>
</g>
</svg>
