<svg width="100%" height="39" viewBox="0 0 220 70" fill="none" xmlns="http://www.w3.org/2000/svg">
<path fill-rule="evenodd" clip-rule="evenodd" d="M52.3002 70H73H73.6002H100.6C123.724 70 136.408 57.2838 139 41.3094V70H158.1V32.1L175.1 53.4H183.5L200.5 32.1V70H219.6V0H202.6L179.3 30.9L156 0H139V28.6692C136.417 12.7049 123.802 0 100.6 0H73V68.4146L47.1002 0H26.6002L0.200195 70H21.5002L25.8002 57.6H48.0002L52.3002 70ZM31.5002 41.4L36.9002 26L42.3002 41.4H31.5002ZM99.3 53.8H92.1V16.2H99.3C115.3 16.2 121.7 24.6 121.7 35C121.7 45.3 115.3 53.8 99.3 53.8Z" fill="black"/>
</svg>
