<?xml version="1.0" encoding="UTF-8"?>
<svg xmlns="http://www.w3.org/2000/svg" xmlns:xlink="http://www.w3.org/1999/xlink" width="500pt" height="500pt" viewBox="0 0 500 500" version="1.1">
<g id="surface2362134">
<path style=" stroke:none;fill-rule:nonzero;fill:rgb(100%,100%,100%);fill-opacity:1;" d="M 249.0625 33.125 C 271.132812 33.125 290.351562 38.671875 300.9375 52.8125 C 316.640625 56.210938 329.140625 63.59375 336.875 74.375 C 345.429688 86.289062 349.21875 100.625 350.3125 115 C 352.304688 141.171875 346.132812 166.796875 340.9375 182.8125 C 345.664062 188.59375 348.710938 196.289062 347.8125 206.875 C 346.679688 219.140625 343.867188 228.085938 339.0625 234.375 C 336.640625 237.539062 333.125 237.734375 330 239.375 C 327.65625 252.65625 322.617188 265.859375 316.5625 276.25 C 316.171875 278.007812 315.3125 279.648438 314.0625 280.9375 C 314.0625 280.9375 313.476562 281.484375 313.4375 281.5625 C 313.359375 281.679688 313.203125 281.757812 313.125 281.875 C 309.960938 286.679688 308.125 291.523438 308.125 296.875 C 308.125 305.273438 308.28125 312.734375 309.0625 322.1875 C 310.804688 326.261719 313.722656 329.910156 317.855469 333.34375 C 307.722656 345.488281 299.9375 359.648438 295.207031 375.105469 C 284.949219 383.191406 270.027344 390 250 390 C 225.273438 390 208.007812 379.570312 197.8125 369.0625 C 192.851562 363.945312 189.414062 358.710938 187.1875 354.6875 C 183.828125 356.875 180.15625 358.789062 176.5625 360.625 C 162.109375 367.929688 145.703125 373.515625 130 380.3125 C 114.296875 387.109375 99.375 394.804688 88.75 405.625 C 80.273438 414.257812 75.234375 425.742188 72.5 440 L 293.820312 440 C 295.621094 446.925781 298.027344 453.613281 300.980469 460 L 49.375 460 L 50 449.375 C 51.367188 424.453125 61.09375 405.351562 74.6875 391.5625 C 88.28125 377.773438 105.195312 369.101562 121.875 361.875 C 138.554688 354.648438 154.960938 348.828125 167.5 342.5 C 179.492188 336.445312 186.992188 330.390625 190 322.8125 C 190.820312 314.84375 190.9375 307.695312 190.9375 300 C 190.9375 292.773438 189.375 286.25 186.25 281.5625 C 186.015625 281.289062 185 280 185 280 C 184.0625 278.789062 183.4375 277.421875 183.125 275.9375 C 176.914062 265.703125 171.484375 252.695312 169.0625 239.0625 C 166.328125 237.421875 163.164062 237.265625 160.9375 234.375 C 156.289062 228.28125 152.617188 219.6875 150.9375 207.5 L 150.9375 206.875 C 149.960938 195.351562 153.789062 187.65625 158.4375 182.1875 C 149.765625 145.625 147.226562 110.429688 159.375 82.5 C 172.148438 53.164062 201.835938 34.179688 248.75 33.125 Z M 177.8125 90.625 C 168.085938 113.046875 169.53125 146.054688 178.75 182.5 L 180.3125 189.375 L 174.6875 193.4375 C 175.46875 192.890625 170.78125 197.109375 170.9375 204.6875 C 170.976562 204.84375 170.898438 204.84375 170.9375 205 C 170.9375 205.195312 170.9375 205.117188 170.9375 205.3125 C 172.304688 214.492188 174.804688 219.882812 176.5625 222.1875 C 177.460938 223.398438 178.398438 223.90625 178.75 224.0625 L 186.875 224.0625 L 187.8125 232.8125 C 189.53125 245.625 196.289062 260.546875 202.1875 269.0625 C 202.226562 269.140625 202.148438 269.296875 202.1875 269.375 C 203.59375 271.09375 208.554688 277.226562 216.875 284.375 C 226.484375 292.617188 238.984375 300 250 300 C 261.09375 300 273.476562 292.96875 282.8125 285 C 288.4375 280.195312 292.382812 276.171875 295 273.125 C 295.546875 272.1875 295.976562 271.171875 296.5625 270.3125 L 296.875 270.3125 C 302.617188 262.109375 309.21875 245.78125 310.9375 232.8125 L 312.1875 224.0625 L 320.9375 224.0625 C 320.585938 224.0625 321.445312 224.375 323.125 222.1875 C 324.765625 220.039062 327.1875 214.726562 328.125 205.3125 C 328.125 205.15625 328.125 205.15625 328.125 205 C 328.515625 197.65625 325.234375 194.335938 325.3125 194.0625 L 317.5 190 L 320.625 181.5625 C 325.195312 168.75 332.148438 140.585938 330.3125 116.5625 C 329.414062 104.570312 326.210938 93.710938 320.625 85.9375 C 315.039062 78.164062 307.5 72.851562 293.75 70.9375 L 288.75 70.3125 L 286.25 65.9375 C 282.109375 58.828125 269.335938 53.203125 249.375 53.125 C 249.257812 53.125 249.179688 53.125 249.0625 53.125 C 207.226562 54.140625 187.539062 68.28125 177.8125 90.625 Z M 210 326.25 L 209.375 328.125 C 207.773438 332.851562 205.390625 336.875 202.5 340.625 C 202.5 340.625 204.882812 347.5 212.1875 355 C 219.492188 362.5 230.742188 370 250 370 C 269.335938 370 280.195312 362.8125 287.1875 355.625 C 294.179688 348.4375 296.5625 341.875 296.5625 341.875 C 296.640625 341.445312 296.757812 341.015625 296.875 340.625 C 293.945312 336.953125 291.445312 333.046875 289.6875 328.4375 L 289.0625 327.1875 L 289.0625 325.9375 C 288.359375 318.28125 288.164062 312.03125 288.125 305.9375 C 277.851562 313.4375 265 320 250 320 C 234.6875 320 221.484375 313.085938 210.9375 305.3125 C 210.9375 311.835938 210.859375 318.671875 210 326.25 Z M 210 326.25 "/>
<path style=" stroke:none;fill-rule:nonzero;fill:rgb(100%,100%,100%);fill-opacity:1;" d="M 470 340 C 473 340 475 341 477 343 C 481 347 481 353 477 357 L 424 410 L 477 463 C 481 467 481 473 477 477 C 475 479 473 480 470 480 C 467 480 465 479 463 477 L 410 424 L 357 477 C 355 479 352 480 350 480 C 348 480 345 479 343 477 C 339 473 339 467 343 463 L 396 410 L 343 357 C 339 353 339 347 343 343 C 345 341 348 340 350 340 C 352 340 355 341 357 343 L 410 396 L 463 343 C 465 341 467 340 470 340 M 470 320 C 462 320 454 323 449 329 L 410 368 L 371 329 C 366 323 358 320 350 320 C 342 320 334 323 329 329 C 323 335 320 342 320 350 C 320 358 323 366 329 371 L 368 410 L 329 449 C 323 455 320 462 320 470 C 320 478 323 486 329 491 C 335 497 342 500 350 500 C 358 500 366 497 371 491 L 410 452 L 449 491 C 454 497 462 500 470 500 C 478 500 486 497 491 491 C 497 486 500 478 500 470 C 500 462 497 454 491 449 L 452 410 L 491 371 C 497 366 500 358 500 350 C 500 342 497 334 491 329 C 486 323 478 320 470 320 Z M 470 320 "/>
</g>
</svg>
