<?xml version="1.0" encoding="UTF-8"?>
<svg xmlns="http://www.w3.org/2000/svg" xmlns:xlink="http://www.w3.org/1999/xlink" width="500pt" height="500pt" viewBox="0 0 500 500" version="1.1">
<g id="surface2360014">
<path style=" stroke:none;fill-rule:nonzero;fill:rgb(100%,100%,100%);fill-opacity:1;" d="M 249.0625 33.125 C 271.132812 33.125 290.351562 38.671875 300.9375 52.8125 C 316.640625 56.210938 329.140625 63.59375 336.875 74.375 C 345.429688 86.289062 349.21875 100.625 350.3125 115 C 352.304688 141.171875 346.132812 166.796875 340.9375 182.8125 C 345.664062 188.59375 348.710938 196.289062 347.8125 206.875 C 346.679688 219.140625 343.867188 228.085938 339.0625 234.375 C 336.640625 237.539062 333.125 237.734375 330 239.375 C 327.65625 252.65625 322.617188 265.859375 316.5625 276.25 C 316.171875 278.007812 315.3125 279.648438 314.0625 280.9375 C 314.0625 280.9375 313.476562 281.484375 313.4375 281.5625 C 313.359375 281.679688 313.203125 281.757812 313.125 281.875 C 309.960938 286.679688 308.125 291.523438 308.125 296.875 C 308.125 305.273438 308.28125 312.734375 309.0625 322.1875 C 311.917969 328.859375 317.929688 334.402344 327.242188 339.703125 C 326.441406 344.695312 326.023438 349.808594 326.023438 355.019531 C 326.023438 357.621094 326.023438 359.441406 326.023438 361.882812 C 325.15625 361.46875 324.292969 361.050781 323.4375 360.625 C 319.648438 358.75 316.015625 356.640625 312.5 354.375 C 310.351562 358.515625 307.03125 363.75 301.5625 369.375 C 291.5625 379.6875 274.648438 390 250 390 C 225.273438 390 208.007812 379.570312 197.8125 369.0625 C 192.851562 363.945312 189.414062 358.710938 187.1875 354.6875 C 183.828125 356.875 180.15625 358.789062 176.5625 360.625 C 162.109375 367.929688 145.703125 373.515625 130 380.3125 C 114.296875 387.109375 99.375 394.804688 88.75 405.625 C 80.273438 414.257812 75.234375 425.742188 72.5 440 L 259.394531 440 C 259.351562 440.667969 259.332031 441.335938 259.332031 442.007812 L 259.332031 460 L 49.375 460 L 50 449.375 C 51.367188 424.453125 61.09375 405.351562 74.6875 391.5625 C 88.28125 377.773438 105.195312 369.101562 121.875 361.875 C 138.554688 354.648438 154.960938 348.828125 167.5 342.5 C 179.492188 336.445312 186.992188 330.390625 190 322.8125 C 190.820312 314.84375 190.9375 307.695312 190.9375 300 C 190.9375 292.773438 189.375 286.25 186.25 281.5625 C 186.015625 281.289062 185 280 185 280 C 184.0625 278.789062 183.4375 277.421875 183.125 275.9375 C 176.914062 265.703125 171.484375 252.695312 169.0625 239.0625 C 166.328125 237.421875 163.164062 237.265625 160.9375 234.375 C 156.289062 228.28125 152.617188 219.6875 150.9375 207.5 L 150.9375 206.875 C 149.960938 195.351562 153.789062 187.65625 158.4375 182.1875 C 149.765625 145.625 147.226562 110.429688 159.375 82.5 C 172.148438 53.164062 201.835938 34.179688 248.75 33.125 Z M 450 449.375 L 450.625 460 L 431.460938 460 C 432.039062 457.660156 432.34375 455.199219 432.34375 452.640625 L 432.34375 451.671875 C 438.375 451.070312 444.253906 449.894531 449.929688 448.203125 C 449.953125 448.589844 449.976562 448.980469 450 449.375 Z M 177.8125 90.625 C 168.085938 113.046875 169.53125 146.054688 178.75 182.5 L 180.3125 189.375 L 174.6875 193.4375 C 175.46875 192.890625 170.78125 197.109375 170.9375 204.6875 C 170.976562 204.84375 170.898438 204.84375 170.9375 205 C 170.9375 205.195312 170.9375 205.117188 170.9375 205.3125 C 172.304688 214.492188 174.804688 219.882812 176.5625 222.1875 C 177.460938 223.398438 178.398438 223.90625 178.75 224.0625 L 186.875 224.0625 L 187.8125 232.8125 C 189.53125 245.625 196.289062 260.546875 202.1875 269.0625 C 202.226562 269.140625 202.148438 269.296875 202.1875 269.375 C 203.59375 271.09375 208.554688 277.226562 216.875 284.375 C 226.484375 292.617188 238.984375 300 250 300 C 261.09375 300 273.476562 292.96875 282.8125 285 C 288.4375 280.195312 292.382812 276.171875 295 273.125 C 295.546875 272.1875 295.976562 271.171875 296.5625 270.3125 L 296.875 270.3125 C 302.617188 262.109375 309.21875 245.78125 310.9375 232.8125 L 312.1875 224.0625 L 320.9375 224.0625 C 320.585938 224.0625 321.445312 224.375 323.125 222.1875 C 324.765625 220.039062 327.1875 214.726562 328.125 205.3125 C 328.125 205.15625 328.125 205.15625 328.125 205 C 328.515625 197.65625 325.234375 194.335938 325.3125 194.0625 L 317.5 190 L 320.625 181.5625 C 325.195312 168.75 332.148438 140.585938 330.3125 116.5625 C 329.414062 104.570312 326.210938 93.710938 320.625 85.9375 C 315.039062 78.164062 307.5 72.851562 293.75 70.9375 L 288.75 70.3125 L 286.25 65.9375 C 282.109375 58.828125 269.335938 53.203125 249.375 53.125 C 249.257812 53.125 249.179688 53.125 249.0625 53.125 C 207.226562 54.140625 187.539062 68.28125 177.8125 90.625 Z M 210 326.25 L 209.375 328.125 C 207.773438 332.851562 205.390625 336.875 202.5 340.625 C 202.5 340.625 204.882812 347.5 212.1875 355 C 219.492188 362.5 230.742188 370 250 370 C 269.335938 370 280.195312 362.8125 287.1875 355.625 C 294.179688 348.4375 296.5625 341.875 296.5625 341.875 C 296.640625 341.445312 296.757812 341.015625 296.875 340.625 C 293.945312 336.953125 291.445312 333.046875 289.6875 328.4375 L 289.0625 327.1875 L 289.0625 325.9375 C 288.359375 318.28125 288.164062 312.03125 288.125 305.9375 C 277.851562 313.4375 265 320 250 320 C 234.6875 320 221.484375 313.085938 210.9375 305.3125 C 210.9375 311.835938 210.859375 318.671875 210 326.25 Z M 210 326.25 "/>
<path style=" stroke:none;fill-rule:nonzero;fill:rgb(100%,100%,100%);fill-opacity:1;" d="M 442.007812 316.355469 C 452.640625 316.355469 461.339844 325.054688 461.339844 335.6875 C 461.339844 346.320312 452.640625 355.019531 442.007812 355.019531 C 431.375 355.019531 422.675781 346.320312 422.675781 335.6875 C 422.675781 325.054688 431.375 316.355469 442.007812 316.355469 Z M 500 355.019531 C 500 397.546875 465.203125 432.34375 422.675781 432.34375 C 419.777344 432.34375 415.910156 432.34375 413.011719 431.375 L 413.011719 451.671875 C 413.011719 457.472656 409.144531 461.339844 403.34375 461.339844 L 384.015625 461.339844 L 384.015625 480.667969 C 384.015625 486.46875 380.148438 490.335938 374.347656 490.335938 L 349.21875 490.335938 L 342.453125 497.101562 C 340.519531 499.035156 338.585938 500 335.6875 500 L 288.328125 500 C 282.527344 500 278.660156 496.132812 278.660156 490.335938 L 278.660156 442.007812 C 278.660156 439.109375 279.628906 437.175781 281.5625 435.242188 L 347.285156 369.515625 C 346.320312 364.683594 345.351562 359.851562 345.351562 355.019531 C 345.351562 312.492188 380.148438 277.695312 422.675781 277.695312 C 465.203125 277.695312 500 312.492188 500 355.019531 Z M 393.679688 426.542969 C 387.882812 424.609375 382.082031 420.742188 377.25 416.878906 L 341.488281 452.640625 C 339.554688 454.574219 336.652344 455.539062 334.722656 455.539062 C 332.789062 455.539062 329.886719 454.574219 327.957031 452.640625 C 324.089844 448.773438 324.089844 442.972656 327.957031 439.109375 L 362.75 404.3125 C 358.886719 399.480469 355.984375 394.648438 353.085938 389.8125 L 297.027344 445.875 L 297.027344 480.667969 L 330.855469 480.667969 L 337.621094 473.902344 C 339.554688 471.96875 341.488281 471.003906 344.386719 471.003906 L 363.71875 471.003906 L 363.71875 451.671875 C 363.71875 445.875 367.582031 442.007812 373.382812 442.007812 L 392.714844 442.007812 L 392.714844 426.542969 Z M 480.667969 355.019531 C 480.667969 323.121094 454.574219 297.027344 422.675781 297.027344 C 390.78125 297.027344 364.683594 323.121094 364.683594 355.019531 C 364.683594 386.914062 390.78125 413.011719 422.675781 413.011719 C 454.574219 413.011719 480.667969 386.914062 480.667969 355.019531 Z M 480.667969 355.019531 "/>
</g>
</svg>
