<svg class="lds-spinner" width="84px"  height="84px"  xmlns="http://www.w3.org/2000/svg" xmlns:xlink="http://www.w3.org/1999/xlink" viewBox="0 0 100 100" preserveAspectRatio="xMidYMid" style="background: none;">

<g xmlns="http://www.w3.org/2000/svg">

  <use xmlns:xlink="http://www.w3.org/1999/xlink" xlink:href="#i1UYHpe19" opacity="1" fill="#000000" fill-opacity="1"/>

<g>

<use xmlns:xlink="http://www.w3.org/1999/xlink" xlink:href="#i1UYHpe19" opacity="1" fill-opacity="0" stroke="#000000" stroke-width="1" stroke-opacity="0"/>
<path fill-rule="evenodd" clip-rule="evenodd" d="M52.3002 70H73H73.6002H100.6C123.724 70 136.408 57.2838 139 41.3094V70H158.1V32.1L175.1 53.4H183.5L200.5 32.1V70H219.6V0H202.6L179.3 30.9L156 0H139V28.6692C136.417 12.7049 123.802 0 100.6 0H73V68.4146L47.1002 0H26.6002L0.200195 70H21.5002L25.8002 57.6H48.0002L52.3002 70ZM31.5002 41.4L36.9002 26L42.3002 41.4H31.5002ZM99.3 53.8H92.1V16.2H99.3C115.3 16.2 121.7 24.6 121.7 35C121.7 45.3 115.3 53.8 99.3 53.8Z" fill="black"/>
</g>

</g>








  <g transform="rotate(0 50 50)">
  <rect x="48.5" y="22.5" rx="2.4250000000000003" ry="1.125" width="3" height="9" fill="#28292f">
    <animate attributeName="opacity" values="1;0" keyTimes="0;1" dur="1.5s" begin="-1.3928571428571428s" repeatCount="indefinite"></animate>
  </rect>
</g><g transform="rotate(25.714285714285715 50 50)">
  <rect x="48.5" y="22.5" rx="2.4250000000000003" ry="1.125" width="3" height="9" fill="#28292f">
    <animate attributeName="opacity" values="1;0" keyTimes="0;1" dur="1.5s" begin="-1.2857142857142858s" repeatCount="indefinite"></animate>
  </rect>
</g><g transform="rotate(51.42857142857143 50 50)">
  <rect x="48.5" y="22.5" rx="2.4250000000000003" ry="1.125" width="3" height="9" fill="#28292f">
    <animate attributeName="opacity" values="1;0" keyTimes="0;1" dur="1.5s" begin="-1.1785714285714286s" repeatCount="indefinite"></animate>
  </rect>
</g><g transform="rotate(77.14285714285714 50 50)">
  <rect x="48.5" y="22.5" rx="2.4250000000000003" ry="1.125" width="3" height="9" fill="#28292f">
    <animate attributeName="opacity" values="1;0" keyTimes="0;1" dur="1.5s" begin="-1.0714285714285714s" repeatCount="indefinite"></animate>
  </rect>
</g><g transform="rotate(102.85714285714286 50 50)">
  <rect x="48.5" y="22.5" rx="2.4250000000000003" ry="1.125" width="3" height="9" fill="#28292f">
    <animate attributeName="opacity" values="1;0" keyTimes="0;1" dur="1.5s" begin="-0.9642857142857143s" repeatCount="indefinite"></animate>
  </rect>
</g><g transform="rotate(128.57142857142858 50 50)">
  <rect x="48.5" y="22.5" rx="2.4250000000000003" ry="1.125" width="3" height="9" fill="#28292f">
    <animate attributeName="opacity" values="1;0" keyTimes="0;1" dur="1.5s" begin="-0.8571428571428571s" repeatCount="indefinite"></animate>
  </rect>
</g><g transform="rotate(154.28571428571428 50 50)">
  <rect x="48.5" y="22.5" rx="2.4250000000000003" ry="1.125" width="3" height="9" fill="#28292f">
    <animate attributeName="opacity" values="1;0" keyTimes="0;1" dur="1.5s" begin="-0.75s" repeatCount="indefinite"></animate>
  </rect>
</g><g transform="rotate(180 50 50)">
  <rect x="48.5" y="22.5" rx="2.4250000000000003" ry="1.125" width="3" height="9" fill="#28292f">
    <animate attributeName="opacity" values="1;0" keyTimes="0;1" dur="1.5s" begin="-0.6428571428571429s" repeatCount="indefinite"></animate>
  </rect>
</g><g transform="rotate(205.71428571428572 50 50)">
  <rect x="48.5" y="22.5" rx="2.4250000000000003" ry="1.125" width="3" height="9" fill="#28292f">
    <animate attributeName="opacity" values="1;0" keyTimes="0;1" dur="1.5s" begin="-0.5357142857142857s" repeatCount="indefinite"></animate>
  </rect>
</g><g transform="rotate(231.42857142857142 50 50)">
  <rect x="48.5" y="22.5" rx="2.4250000000000003" ry="1.125" width="3" height="9" fill="#28292f">
    <animate attributeName="opacity" values="1;0" keyTimes="0;1" dur="1.5s" begin="-0.42857142857142855s" repeatCount="indefinite"></animate>
  </rect>
</g><g transform="rotate(257.14285714285717 50 50)">
  <rect x="48.5" y="22.5" rx="2.4250000000000003" ry="1.125" width="3" height="9" fill="#28292f">
    <animate attributeName="opacity" values="1;0" keyTimes="0;1" dur="1.5s" begin="-0.32142857142857145s" repeatCount="indefinite"></animate>
  </rect>
</g><g transform="rotate(282.85714285714283 50 50)">
  <rect x="48.5" y="22.5" rx="2.4250000000000003" ry="1.125" width="3" height="9" fill="#28292f">
    <animate attributeName="opacity" values="1;0" keyTimes="0;1" dur="1.5s" begin="-0.21428571428571427s" repeatCount="indefinite"></animate>
  </rect>
</g><g transform="rotate(308.57142857142856 50 50)">
  <rect x="48.5" y="22.5" rx="2.4250000000000003" ry="1.125" width="3" height="9" fill="#28292f">
    <animate attributeName="opacity" values="1;0" keyTimes="0;1" dur="1.5s" begin="-0.10714285714285714s" repeatCount="indefinite"></animate>
  </rect>
</g><g transform="rotate(334.2857142857143 50 50)">
  <rect x="48.5" y="22.5" rx="2.4250000000000003" ry="1.125" width="3" height="9" fill="#28292f">
    <animate attributeName="opacity" values="1;0" keyTimes="0;1" dur="1.5s" begin="0s" repeatCount="indefinite"></animate>
  </rect>
</g></svg>